<svg width="14" height="13" viewBox="0 0 14 13" fill="none" xmlns="http://www.w3.org/2000/svg">
<path d="M1.01011 7.57532L1.49596 7.80547L2.78957 8.41114C2.83155 8.43071 2.86401 8.4495 2.86401 8.50704C2.86204 9.15069 2.86401 9.79434 2.86401 10.4376C2.86401 10.4568 2.86085 10.476 2.85847 10.5051C2.83075 10.494 2.80818 10.4859 2.7868 10.476C2.46567 10.3225 2.14494 10.1691 1.82342 10.0191C1.57132 9.90047 1.31857 9.78335 1.06515 9.66776C1.04452 9.66148 1.02679 9.64843 1.01501 9.63086C1.00323 9.61329 0.99814 9.59229 1.00061 9.57148C1.00298 8.92783 1.00417 8.28431 1.00417 7.64091C1.00417 7.62442 1.00694 7.60792 1.01011 7.57532Z" stroke="#1479FF" stroke-width="0.15" stroke-miterlimit="10"/>
<path d="M7.10299 12.3974C7.10299 12.3678 7.09863 12.3444 7.09863 12.3207C7.09863 11.6851 7.1022 11.0491 7.1018 10.4135C7.09902 10.3896 7.10457 10.3656 7.11756 10.3451C7.13055 10.3247 7.15023 10.309 7.17347 10.3007C7.74313 10.0353 8.31213 9.76855 8.88047 9.50055C8.90027 9.49135 8.92007 9.48406 8.95095 9.47217C8.95333 9.50209 8.9565 9.52472 8.9565 9.54888C8.9565 10.1846 8.9565 10.8203 8.9565 11.4561C8.9565 11.5029 8.95095 11.5358 8.89829 11.5604C8.31253 11.8327 7.72769 12.1069 7.14377 12.3828C7.13387 12.387 7.12239 12.3901 7.10299 12.3974Z" stroke="#FFD700" stroke-width="0.15" stroke-miterlimit="10"/>
<path d="M1.01881 3.30115C1.19857 3.38477 1.36607 3.46264 1.53356 3.54089C1.94813 3.7369 2.36192 3.93291 2.77847 4.12432C2.80629 4.1338 2.82993 4.15221 2.84548 4.17648C2.86103 4.20075 2.86757 4.22944 2.864 4.2578C2.864 4.87652 2.864 5.49524 2.864 6.11434C2.864 6.1481 2.864 6.18147 2.864 6.22673C2.82915 6.21331 2.80579 6.2064 2.78481 6.19643C2.21567 5.92869 1.64654 5.66133 1.07741 5.39436C1.05527 5.38681 1.03639 5.37226 1.02382 5.35306C1.01125 5.33385 1.00572 5.31111 1.00812 5.28849C1.01102 4.64918 1.0126 4.01078 1.01287 3.37326C1.01287 3.35331 1.01603 3.33529 1.01881 3.30115Z" stroke="#1479FF" stroke-width="0.15" stroke-miterlimit="10"/>
<path d="M12.9982 3.30371C12.9982 3.339 12.9982 3.36086 12.9982 3.38273C12.9982 4.01833 12.9982 4.65431 12.9982 5.2899C13.0004 5.31251 12.9947 5.33518 12.982 5.35425C12.9693 5.37332 12.9503 5.38768 12.9281 5.395C12.3629 5.65814 11.7983 5.92256 11.2342 6.18825C11.212 6.19861 11.1894 6.20782 11.155 6.22278C11.1526 6.18825 11.1498 6.16332 11.1498 6.13839C11.1498 5.50509 11.1498 4.87256 11.1498 4.2385C11.1467 4.21595 11.1516 4.19304 11.1637 4.17353C11.1758 4.15402 11.1944 4.13906 11.2164 4.1311C11.7865 3.86566 12.3558 3.59881 12.9241 3.33056C12.9439 3.32136 12.9653 3.31483 12.9982 3.30371Z" stroke="#FFD700" stroke-width="0.15" stroke-miterlimit="10"/>
<path d="M11.1509 10.4962C11.1509 10.4072 11.1509 10.3297 11.1509 10.2526C11.1509 9.67031 11.1509 9.08803 11.1509 8.50575C11.1475 8.48563 11.1511 8.46498 11.1611 8.44705C11.1712 8.42913 11.1871 8.41496 11.2064 8.40679C11.7832 8.13802 12.3595 7.86836 12.9355 7.59781C12.9506 7.59052 12.9668 7.58553 12.9934 7.57556C12.9953 7.60548 12.9985 7.6285 12.9985 7.65228C12.9985 8.28596 12.9985 8.9181 12.9985 9.55331C13.001 9.57798 12.9948 9.60273 12.9811 9.6236C12.9673 9.64447 12.9466 9.66025 12.9225 9.66839C12.3705 9.9259 11.8193 10.1847 11.2689 10.4448C11.2376 10.4609 11.2032 10.4743 11.1509 10.4962Z" stroke="#FFD700" stroke-width="0.15" stroke-miterlimit="10"/>
<path d="M5.06111 5.19983C5.2389 5.28307 5.40204 5.35863 5.56399 5.43535C5.87522 5.58264 6.18565 5.73109 6.49688 5.87839C6.6121 5.93286 6.72733 5.98771 6.84493 6.03642C6.8663 6.04295 6.88456 6.05667 6.8964 6.0751C6.90824 6.09354 6.91287 6.11546 6.90947 6.13692C6.90433 6.30263 6.89997 6.46834 6.89997 6.63558C6.89997 7.1024 6.90274 7.56884 6.90433 8.03566C6.90433 8.06212 6.90433 8.08821 6.90433 8.12541C6.87107 8.11314 6.8485 8.10623 6.82711 8.09626C6.26088 7.83006 5.69505 7.5627 5.12764 7.29803C5.10339 7.28925 5.0829 7.27282 5.06947 7.25139C5.05603 7.22996 5.05044 7.20477 5.05359 7.17988C5.05359 6.54659 5.05359 5.91406 5.05359 5.28038C5.05517 5.25775 5.05834 5.23665 5.06111 5.19983Z" stroke="#1479FF" stroke-width="0.15" stroke-miterlimit="10"/>
<path d="M8.9564 5.20447C8.9564 5.2505 8.9564 5.28655 8.9564 5.32299C8.9564 5.93673 8.9564 6.55046 8.95838 7.16419C8.96215 7.19347 8.95533 7.22311 8.93909 7.24808C8.92284 7.27304 8.89818 7.29179 8.86929 7.30113C8.30069 7.56388 7.73485 7.83201 7.16665 8.09822C7.15358 8.10435 7.14012 8.10972 7.11636 8.12046C7.11438 8.08748 7.11121 8.06216 7.11161 8.03646C7.11161 7.62551 7.11293 7.21444 7.11557 6.80324C7.11557 6.57654 7.11557 6.35023 7.11992 6.12353C7.12057 6.10687 7.12503 6.09056 7.13297 6.07577C7.14092 6.06098 7.15215 6.04808 7.16585 6.03799C7.7466 5.76105 8.32893 5.48627 8.91285 5.21367C8.9271 5.20954 8.94166 5.20647 8.9564 5.20447Z" stroke="#FFD700" stroke-width="0.15" stroke-miterlimit="10"/>
<path d="M6.88563 12.4001L5.92977 11.9517C5.6621 11.8259 5.39522 11.6997 5.12715 11.5751C5.0832 11.5547 5.0543 11.534 5.05469 11.4788C5.05469 10.8355 5.05469 10.1922 5.05469 9.54897C5.05469 9.5321 5.05746 9.5156 5.06023 9.48914C5.07964 9.49323 5.09871 9.49874 5.11725 9.50563C5.69087 9.7749 6.26463 10.0441 6.83851 10.3131C6.85732 10.3193 6.87345 10.3315 6.88435 10.3476C6.89525 10.3637 6.9003 10.3829 6.8987 10.4021C6.89553 11.0478 6.89328 11.6936 6.89196 12.3395C6.89276 12.3556 6.88919 12.3721 6.88563 12.4001Z" stroke="#1479FF" stroke-width="0.15" stroke-miterlimit="10"/>
<path d="M9.1714 11.4266C9.1714 11.3955 9.16744 11.3721 9.16744 11.3498C9.16744 10.7139 9.16744 10.0779 9.16744 9.44189C9.16401 9.42064 9.16809 9.39889 9.17902 9.38017C9.18994 9.36144 9.20707 9.34683 9.22763 9.33871C9.7796 9.08299 10.3308 8.82484 10.8812 8.56426C10.8982 8.5562 10.9164 8.55083 10.9477 8.53894C10.9477 8.68125 10.9477 8.81205 10.9477 8.94324C10.9477 9.31506 10.9477 9.68675 10.9477 10.0583C10.9477 10.2117 10.9477 10.3652 10.9477 10.5167C10.9498 10.542 10.9431 10.5673 10.9288 10.5886C10.9145 10.6099 10.8933 10.6261 10.8685 10.6345C10.3209 10.8884 9.77564 11.1465 9.22921 11.4016C9.21575 11.4085 9.19714 11.4162 9.1714 11.4266Z" stroke="#FFD700" stroke-width="0.15" stroke-miterlimit="10"/>
<path d="M9.16714 7.15088C9.16714 7.11981 9.16714 7.09603 9.16714 7.07417C9.16714 6.44317 9.16714 5.81218 9.16714 5.18119C9.16384 5.15503 9.1699 5.12858 9.18432 5.10624C9.19873 5.0839 9.22062 5.06703 9.24633 5.05844C9.80068 4.79952 10.3574 4.53753 10.9125 4.27631C10.922 4.27326 10.9316 4.27095 10.9415 4.26941C10.9454 4.28763 10.948 4.30608 10.9494 4.32465C10.9494 4.97034 10.9494 5.61591 10.9494 6.26135C10.9516 6.28049 10.9473 6.29981 10.9369 6.31628C10.9266 6.33274 10.9109 6.3454 10.8924 6.35226C10.3296 6.6154 9.76742 6.87956 9.20594 7.14475C9.19321 7.14786 9.18023 7.14991 9.16714 7.15088Z" stroke="#FFD700" stroke-width="0.15" stroke-miterlimit="10"/>
<path d="M4.85023 11.4397C4.81499 11.4251 4.79242 11.417 4.77103 11.4071C4.22936 11.1531 3.68821 10.8995 3.14758 10.646C3.12346 10.6378 3.10287 10.622 3.08909 10.6012C3.07532 10.5803 3.06914 10.5556 3.07156 10.531C3.07433 9.90035 3.07156 9.26935 3.07156 8.63874C3.07156 8.61266 3.07156 8.58619 3.07156 8.54553L3.42792 8.71239C3.87827 8.92438 4.32914 9.13548 4.78054 9.34569C4.80278 9.35256 4.82195 9.36656 4.8349 9.38538C4.84785 9.40419 4.85381 9.42672 4.85181 9.44925C4.84944 10.0799 4.85181 10.7105 4.85181 11.3415C4.85023 11.3702 4.85023 11.3979 4.85023 11.4397Z" stroke="#1479FF" stroke-width="0.15" stroke-miterlimit="10"/>
<path d="M3.07121 4.26501C3.27315 4.35899 3.46123 4.44568 3.64852 4.53352C4.02944 4.71253 4.41023 4.89153 4.79088 5.07054C4.80967 5.07663 4.82582 5.08861 4.83679 5.10458C4.84776 5.12056 4.85293 5.13963 4.85146 5.15876C4.84988 5.80676 4.84988 6.45476 4.85146 7.10276C4.85146 7.11695 4.84909 7.13153 4.84711 7.14956C4.83376 7.15022 4.82039 7.14879 4.80751 7.14534C4.24313 6.88041 3.67941 6.6142 3.11635 6.34672C3.10285 6.33632 3.09191 6.32315 3.08431 6.30816C3.07671 6.29317 3.07264 6.27673 3.0724 6.26003C3.06963 5.86877 3.07042 5.47752 3.07042 5.08627C3.07042 4.8418 3.07042 4.5972 3.07042 4.35247C3.07121 4.32907 3.07121 4.30491 3.07121 4.26501Z" stroke="#1479FF" stroke-width="0.15" stroke-miterlimit="10"/>
<path d="M1.01464 5.58801C1.21618 5.68161 1.40664 5.76945 1.59591 5.85652C1.99478 6.04473 2.39365 6.2332 2.79252 6.42192C2.81392 6.42792 2.83262 6.44071 2.84561 6.45824C2.85861 6.47577 2.86515 6.49702 2.86418 6.51858C2.86181 7.06404 2.86418 7.60911 2.86418 8.15456C2.86418 8.17298 2.86023 8.19292 2.85666 8.21977L2.42625 8.01878C1.97749 7.80704 1.52701 7.59543 1.07482 7.38395C1.05339 7.37792 1.03469 7.36506 1.02175 7.34744C1.00881 7.32983 1.0024 7.30849 1.00355 7.2869C1.00751 6.74183 1.00791 6.19638 1.00949 5.6513C1.00949 5.63481 1.01187 5.6164 1.01464 5.58801Z" stroke="#1479FF" stroke-width="0.15" stroke-miterlimit="10"/>
<path d="M5.05525 7.48621C5.17404 7.54221 5.27739 7.58862 5.37876 7.63619C5.85946 7.86173 6.33897 8.08881 6.82086 8.31168C6.84854 8.32125 6.872 8.33972 6.88734 8.364C6.90269 8.38829 6.90899 8.41693 6.9052 8.44516C6.90124 8.97566 6.90124 9.50615 6.90005 10.0366C6.90005 10.0581 6.89767 10.0796 6.8953 10.1134C6.8264 10.0827 6.76542 10.0566 6.70563 10.0286C6.18454 9.78387 5.66385 9.53799 5.14157 9.2948C5.11361 9.28578 5.08965 9.26779 5.07367 9.2438C5.05768 9.21981 5.05063 9.19125 5.05367 9.16285C5.05763 8.63734 5.05367 8.11145 5.05367 7.58555C5.05525 7.55947 5.05525 7.53454 5.05525 7.48621Z" stroke="#1479FF" stroke-width="0.15" stroke-miterlimit="10"/>
<path d="M12.9933 5.59607C12.9953 5.61832 12.9988 5.63711 12.9988 5.65552C12.9988 6.19254 12.9988 6.72649 12.9988 7.26197C13.0025 7.28672 12.9975 7.31196 12.9844 7.33356C12.9714 7.35517 12.9512 7.37185 12.9271 7.38088C12.3574 7.64594 11.7888 7.91368 11.2198 8.18065C11.2023 8.18871 11.1833 8.19369 11.1576 8.20251C11.1552 8.17451 11.152 8.1538 11.152 8.1327C11.152 7.59569 11.152 7.05765 11.152 6.51859C11.1492 6.49953 11.153 6.4801 11.1628 6.46336C11.1726 6.44662 11.1879 6.43353 11.2063 6.42614C11.7936 6.15124 12.3807 5.8757 12.9675 5.59952C12.976 5.59752 12.9846 5.59636 12.9933 5.59607Z" stroke="#FFD700" stroke-width="0.15" stroke-miterlimit="10"/>
<path d="M8.95161 7.48645C8.95398 7.52059 8.95675 7.54169 8.95675 7.56317C8.95675 8.10018 8.95675 8.6349 8.95675 9.17038C8.96003 9.19166 8.95579 9.2134 8.94472 9.23205C8.93366 9.25071 8.91641 9.2652 8.89577 9.27318C8.31054 9.54603 7.7257 9.82042 7.14126 10.0963C7.13118 10.0993 7.12084 10.1014 7.11037 10.1025C7.11037 10.0776 7.10522 10.0549 7.10522 10.0319C7.1076 9.48645 7.10958 8.941 7.11552 8.39554C7.1187 8.38025 7.12536 8.36584 7.13502 8.35337C7.14467 8.34089 7.15709 8.33066 7.17135 8.32343C7.66683 8.08816 8.16324 7.85469 8.66057 7.62301L8.95161 7.48645Z" stroke="#FFD700" stroke-width="0.15" stroke-miterlimit="10"/>
<path d="M4.84456 9.15189C4.73804 9.10279 4.64301 9.05945 4.54838 9.01495C4.08193 8.79593 3.6143 8.57537 3.14785 8.35826C3.12229 8.3497 3.10051 8.33294 3.08611 8.31076C3.07171 8.28858 3.06555 8.26231 3.06866 8.23628C3.07143 7.70578 3.06866 7.17529 3.06866 6.64479V6.55273L3.48006 6.74453C3.91483 6.9491 4.35039 7.15368 4.78675 7.35826C4.82634 7.37705 4.8505 7.39662 4.8501 7.44418C4.8501 7.99424 4.8501 8.5443 4.8501 9.09359C4.8501 9.10893 4.84733 9.12312 4.84456 9.15189Z" stroke="#1479FF" stroke-width="0.15" stroke-miterlimit="10"/>
<path d="M9.17075 9.1365C9.17075 9.10734 9.16718 9.08395 9.16718 9.05978C9.16718 8.52929 9.16718 7.99879 9.16718 7.4683C9.16379 7.44208 9.16981 7.41554 9.18423 7.39312C9.19865 7.3707 9.22059 7.35377 9.24638 7.34517C9.80073 7.08663 10.3551 6.82464 10.9118 6.56381C10.9218 6.56116 10.932 6.55962 10.9423 6.5592C10.9462 6.57703 10.9489 6.5951 10.9502 6.61329C10.9502 7.15376 10.9502 7.69384 10.9502 8.23431C10.9526 8.25693 10.947 8.27965 10.9343 8.2988C10.9217 8.31794 10.9027 8.33239 10.8805 8.33979C10.3225 8.60012 9.76509 8.86198 9.20836 9.12537C9.19611 9.12994 9.18354 9.13366 9.17075 9.1365V9.1365Z" stroke="#FFD700" stroke-width="0.15" stroke-miterlimit="10"/>
<path d="M8.81073 1.24131C8.6765 1.30499 8.55295 1.36406 8.42941 1.42236C7.97168 1.63768 7.51368 1.85236 7.05542 2.0664C7.02987 2.07817 7.00055 2.07968 6.97385 2.07062C6.39469 1.80057 5.81592 1.53002 5.23755 1.25896C5.22591 1.25112 5.21504 1.24226 5.20508 1.23249C5.27754 1.19758 5.34287 1.16536 5.409 1.13429C5.92349 0.892889 6.43824 0.651999 6.95326 0.411621C6.98094 0.398655 7.01274 0.396592 7.04196 0.405867C7.6227 0.676165 8.20345 0.947997 8.7842 1.22136C8.79349 1.22743 8.80235 1.2341 8.81073 1.24131V1.24131Z" stroke="#FF0055" stroke-width="0.15" stroke-miterlimit="10"/>
<path d="M4.76275 3.14319L4.05358 3.47691C3.71107 3.63763 3.36817 3.7972 3.02684 3.95984C3.00656 3.97081 2.98363 3.97638 2.9604 3.97598C2.93717 3.97557 2.91446 3.96921 2.89459 3.95754C2.34024 3.69593 1.78827 3.43817 1.23471 3.17886C1.21214 3.16851 1.19036 3.157 1.15552 3.14051C1.18324 3.12324 1.19907 3.11289 1.21887 3.10407L2.54535 2.47844C2.66731 2.4209 2.79085 2.36682 2.91083 2.30583C2.97339 2.27399 3.01932 2.31542 3.06288 2.33537C3.61287 2.59006 4.16049 2.84937 4.7089 3.1079C4.72744 3.1188 4.74541 3.13058 4.76275 3.14319Z" stroke="#FF0055" stroke-width="0.15" stroke-miterlimit="10"/>
<path d="M12.8598 3.13535C12.8016 3.16411 12.7608 3.18521 12.7188 3.20477C12.1819 3.45717 11.6447 3.70867 11.1073 3.95928C11.0724 3.9732 11.0332 3.9732 10.9984 3.95928C10.4327 3.69768 9.86789 3.4339 9.30404 3.16795C9.29058 3.16181 9.2783 3.15414 9.25415 3.1411C9.27989 3.12614 9.29691 3.11425 9.31513 3.10543C9.87687 2.84101 10.4389 2.57736 11.0011 2.31448C11.0366 2.30028 11.0765 2.30028 11.112 2.31448C11.3496 2.4238 11.5804 2.53926 11.8156 2.65011C12.0045 2.7391 12.1958 2.82273 12.3854 2.91057C12.5371 2.9823 12.6872 3.05403 12.8598 3.13535Z" stroke="#FF0055" stroke-width="0.15" stroke-miterlimit="10"/>
<path d="M5.20508 5.03535L5.90356 4.70777C6.25517 4.54283 6.60639 4.3775 6.9588 4.21448C6.98709 4.20325 7.01881 4.20325 7.0471 4.21448C7.51566 4.43056 7.98343 4.64793 8.4504 4.86657C8.56602 4.92066 8.68085 4.97551 8.81271 5.03803C8.70461 5.0902 8.60997 5.13661 8.51415 5.18149C8.03107 5.40819 7.54839 5.63527 7.06373 5.8589C7.02569 5.87412 6.98298 5.87412 6.94494 5.8589C6.66302 5.73155 6.37792 5.59691 6.09481 5.46304C5.81169 5.32917 5.53492 5.19914 5.25537 5.0668C5.23804 5.05718 5.22126 5.04668 5.20508 5.03535Z" stroke="#FF0055" stroke-width="0.15" stroke-miterlimit="10"/>
<path d="M3.20142 2.17177L3.89594 1.84611C4.23132 1.68846 4.56432 1.53004 4.90287 1.37507C4.93623 1.36179 4.97365 1.36179 5.00701 1.37507C5.57245 1.63693 6.13762 1.90084 6.70253 2.16679C6.72035 2.17522 6.73619 2.18635 6.76509 2.20284L6.38418 2.38236C5.94862 2.58643 5.51305 2.78972 5.07749 2.99609C5.05601 3.00772 5.03175 3.01366 5.00714 3.01333C4.98254 3.01299 4.95846 3.00638 4.93732 2.99417C4.38086 2.73078 3.82361 2.46879 3.26556 2.20821C3.24814 2.20016 3.23191 2.18903 3.20142 2.17177Z" stroke="#FF0055" stroke-width="0.15" stroke-miterlimit="10"/>
<path d="M10.8131 2.17724C10.6503 2.25396 10.5018 2.32607 10.353 2.39588C9.92453 2.59688 9.49649 2.79826 9.06647 2.99619C9.0478 3.00413 9.0277 3.00842 9.00731 3.00882C8.98693 3.00921 8.96666 3.0057 8.94768 2.99849C8.40838 2.74763 7.86947 2.49331 7.33017 2.24091C7.308 2.23056 7.28622 2.21867 7.25098 2.20064L7.44421 2.10934C7.95606 1.86845 8.46791 1.62731 8.97976 1.38591C9.0034 1.37307 9.03006 1.36633 9.05717 1.36633C9.08427 1.36633 9.11093 1.37307 9.13458 1.38591C9.66834 1.63946 10.2037 1.88955 10.7386 2.14041C10.7572 2.1477 10.777 2.15883 10.8131 2.17724Z" stroke="#FF0055" stroke-width="0.15" stroke-miterlimit="10"/>
<path d="M3.20728 4.09657L3.6662 3.88177C4.09648 3.67975 4.52716 3.47798 4.95823 3.27647C4.98586 3.26338 5.01765 3.26118 5.04692 3.27034C5.6055 3.53015 6.16328 3.79137 6.72027 4.054C6.73391 4.06205 6.74712 4.07075 6.75986 4.08008C6.6878 4.1146 6.62603 4.14452 6.56426 4.17329C6.04977 4.4152 5.53502 4.65648 5.02 4.89711C4.98573 4.91311 4.94635 4.91545 4.91032 4.90363C4.35359 4.64561 3.79792 4.38541 3.24331 4.12304C3.23073 4.11497 3.21869 4.10613 3.20728 4.09657Z" stroke="#FF0055" stroke-width="0.15" stroke-miterlimit="10"/>
<path d="M10.8026 4.10242C10.7171 4.14385 10.6422 4.17914 10.565 4.2175C10.0833 4.44356 9.60084 4.67 9.11777 4.89682C9.09887 4.90788 9.07734 4.914 9.05528 4.91461C9.03321 4.91521 9.01136 4.91028 8.99185 4.90028C8.42879 4.6333 7.86494 4.36761 7.30029 4.10319C7.28802 4.09744 7.27693 4.089 7.25317 4.07442C7.3684 4.01919 7.47293 3.96817 7.57786 3.91907C8.03586 3.70426 8.49413 3.4901 8.95265 3.27657C8.98275 3.26329 9.01704 3.26204 9.04808 3.27312C9.618 3.53805 10.1871 3.80476 10.7555 4.07327C10.7681 4.07903 10.7808 4.08746 10.8026 4.10242Z" stroke="#FF0055" stroke-width="0.15" stroke-miterlimit="10"/>
<path d="M5.25049 3.13844C5.40887 3.06172 5.55459 2.99345 5.69912 2.92555C6.11646 2.72954 6.53341 2.53315 6.95195 2.3402C6.98746 2.32605 7.0273 2.32605 7.06282 2.3402C7.6103 2.59439 8.15673 2.85011 8.70211 3.10737C8.71755 3.11466 8.7318 3.12425 8.75873 3.13959C8.71201 3.16337 8.67399 3.18409 8.63519 3.20211C8.11621 3.44607 7.59737 3.6899 7.07865 3.93361C7.06 3.94536 7.03851 3.95222 7.0163 3.95349C6.99408 3.95477 6.9719 3.95043 6.95195 3.94089C6.40235 3.68006 5.85196 3.42088 5.30078 3.16337L5.25049 3.13844Z" stroke="#FF0055" stroke-width="0.15" stroke-miterlimit="10"/>
</svg>
