<svg width="100" height="100" viewBox="0 0 100 100" fill="none" xmlns="http://www.w3.org/2000/svg">
<path d="M0.0842583 59.7944L4.13299 61.7123L14.9131 66.7597C15.2629 66.9227 15.5335 67.0793 15.5335 67.5588C15.517 72.9225 15.5335 78.2863 15.5335 83.6469C15.5335 83.8067 15.5071 83.9665 15.4873 84.2095C15.2563 84.1168 15.0682 84.0496 14.89 83.9665C12.214 82.6879 9.5412 81.4093 6.86184 80.1595C4.76103 79.1707 2.65472 78.1947 0.542917 77.2315C0.370989 77.1791 0.223254 77.0704 0.125099 76.924C0.0269452 76.7775 -0.0154975 76.6026 0.00506547 76.4291C0.0248637 71.0654 0.0347628 65.7027 0.0347628 60.341C0.0347628 60.2036 0.0578607 60.0661 0.0842583 59.7944Z" fill="#FF0055"/>
<path d="M50.8597 99.9773C50.8597 99.7311 50.8234 99.5361 50.8234 99.338C50.8234 94.0413 50.8531 88.7415 50.8498 83.4449C50.8266 83.2461 50.8728 83.0455 50.9811 82.8752C51.0893 82.7048 51.2534 82.5745 51.447 82.5051C56.1942 80.2931 60.9359 78.0704 65.672 75.8371C65.837 75.7604 66.002 75.6997 66.2594 75.6006C66.2792 75.8499 66.3056 76.0385 66.3056 76.2399C66.3056 81.5376 66.3056 86.8353 66.3056 92.133C66.3056 92.523 66.2594 92.7979 65.8205 93.0025C60.9392 95.272 56.0655 97.5564 51.1995 99.8558C51.1171 99.891 51.0214 99.9165 50.8597 99.9773Z" fill="#FFD700"/>
<path d="M0.157163 24.1753C1.65523 24.8721 3.051 25.521 4.44677 26.1731C7.90156 27.8065 11.3497 29.44 14.821 31.035C15.0528 31.1141 15.2499 31.2675 15.3795 31.4697C15.5091 31.672 15.5635 31.9111 15.5338 32.1474C15.5338 37.3034 15.5338 42.4594 15.5338 47.6186C15.5338 47.8999 15.5338 48.178 15.5338 48.5552C15.2434 48.4433 15.0487 48.3857 14.8738 48.3026C10.1311 46.0715 5.38829 43.8435 0.645519 41.6187C0.460993 41.5558 0.303688 41.4346 0.198938 41.2746C0.094189 41.1145 0.0480921 40.925 0.0680716 40.7365C0.0922694 35.4089 0.105468 30.0889 0.107668 24.7762C0.107668 24.61 0.134066 24.4598 0.157163 24.1753Z" fill="#FF0055"/>
<path d="M99.9853 24.1973C99.9853 24.4913 99.9853 24.6735 99.9853 24.8557C99.9853 30.1524 99.9853 35.4522 99.9853 40.7489C100.004 40.9372 99.9564 41.1262 99.8504 41.2851C99.7444 41.444 99.5861 41.5637 99.4013 41.6247C94.6915 43.8175 89.9861 46.021 85.2851 48.2351C85.1004 48.3214 84.9123 48.3981 84.6252 48.5228C84.6054 48.2351 84.5823 48.0273 84.5823 47.8196C84.5823 42.5421 84.5823 37.271 84.5823 31.9872C84.5565 31.7992 84.5972 31.6084 84.6979 31.4458C84.7986 31.2832 84.9533 31.1585 85.1366 31.0922C89.8882 28.8802 94.6321 26.6565 99.3683 24.421C99.5332 24.3443 99.7114 24.29 99.9853 24.1973Z" fill="#FFD700"/>
<path d="M84.5903 84.1328C84.5903 83.3912 84.5903 82.7455 84.5903 82.103C84.5903 77.2506 84.5903 72.3983 84.5903 67.546C84.5617 67.3783 84.5916 67.2062 84.6752 67.0569C84.7589 66.9075 84.8916 66.7894 85.0523 66.7213C89.8589 64.4816 94.6621 62.2344 99.4621 59.9798C99.5875 59.9191 99.7228 59.8775 99.9439 59.7944C99.9604 60.0438 99.9868 60.2356 99.9868 60.4337C99.9868 65.7144 99.9868 70.9823 99.9868 76.2757C100.007 76.4812 99.9563 76.6875 99.8414 76.8614C99.7265 77.0354 99.5545 77.1668 99.3532 77.2347C94.7534 79.3806 90.1602 81.5372 85.5737 83.7044C85.313 83.8387 85.0259 83.9505 84.5903 84.1328Z" fill="#FFD700"/>
<path d="M33.8425 39.998C35.3241 40.6917 36.6836 41.3214 38.0332 41.9607C40.6267 43.1882 43.2137 44.4252 45.8073 45.6527C46.7675 46.1066 47.7277 46.5637 48.7077 46.9697C48.8858 47.0241 49.0379 47.1384 49.1366 47.292C49.2352 47.4456 49.2739 47.6283 49.2455 47.8072C49.2027 49.1881 49.1664 50.5689 49.1664 51.9626C49.1664 55.8528 49.1895 59.7398 49.2027 63.6299C49.2027 63.8505 49.2027 64.0679 49.2027 64.3779C48.9255 64.2756 48.7374 64.2181 48.5592 64.135C43.8406 61.9166 39.1254 59.6886 34.3969 57.483C34.1948 57.4099 34.0241 57.273 33.9122 57.0944C33.8002 56.9158 33.7536 56.7059 33.7799 56.4985C33.7799 51.221 33.7799 45.95 33.7799 40.6693C33.7931 40.4807 33.8195 40.3049 33.8425 39.998Z" fill="#FF0055"/>
<path d="M66.3027 40.0361C66.3027 40.4197 66.3027 40.7202 66.3027 41.0239C66.3027 46.1383 66.3027 51.2527 66.3192 56.3672C66.3506 56.6112 66.2937 56.8582 66.1584 57.0662C66.023 57.2742 65.8175 57.4305 65.5768 57.5083C60.8384 59.6979 56.1231 61.9323 51.388 64.1507C51.2792 64.2018 51.167 64.2466 50.969 64.3361C50.9525 64.0612 50.9261 63.8502 50.9294 63.6361C50.9294 60.2115 50.9404 56.7859 50.9624 53.3592C50.9624 51.4701 50.9624 49.5841 50.9987 47.695C51.0041 47.5562 51.0413 47.4202 51.1075 47.297C51.1736 47.1737 51.2672 47.0662 51.3814 46.9822C56.221 44.6743 61.0738 42.3845 65.9397 40.1128C66.0585 40.0784 66.1799 40.0528 66.3027 40.0361Z" fill="#FFD700"/>
<path d="M49.0466 100L41.0811 96.2634C38.8505 95.2149 36.6265 94.1633 34.3927 93.1244C34.0264 92.955 33.7855 92.7824 33.7888 92.3221C33.7888 86.9615 33.7888 81.6009 33.7888 76.2404C33.7888 76.0997 33.8119 75.9623 33.835 75.7417C33.9967 75.7758 34.1556 75.8218 34.3102 75.8791C39.0903 78.1231 43.8716 80.366 48.654 82.6078C48.8107 82.6599 48.9452 82.761 49.036 82.8953C49.1268 83.0296 49.1689 83.1894 49.1555 83.3494C49.1291 88.7302 49.1104 94.1121 49.0994 99.4951C49.106 99.6293 49.0763 99.7668 49.0466 100Z" fill="#FF0055"/>
<path d="M68.0959 91.8869C68.0959 91.628 68.0629 91.433 68.0629 91.2476C68.0629 85.9478 68.0629 80.6479 68.0629 75.3481C68.0344 75.171 68.0684 74.9897 68.1594 74.8337C68.2504 74.6776 68.3932 74.5559 68.5645 74.4882C73.1643 72.3572 77.7575 70.206 82.344 68.0345C82.4859 67.9673 82.6377 67.9226 82.8984 67.8235C82.8984 69.0094 82.8984 70.0994 82.8984 71.1926C82.8984 74.2911 82.8984 77.3885 82.8984 80.4849C82.8984 81.7635 82.8984 83.0421 82.8984 84.3048C82.9158 84.516 82.8604 84.7268 82.741 84.9044C82.6216 85.0819 82.4449 85.2161 82.2385 85.2861C77.675 87.4022 73.1313 89.5534 68.5777 91.6791C68.4655 91.7367 68.3104 91.8006 68.0959 91.8869Z" fill="#FFD700"/>
<path d="M68.0604 56.2554C68.0604 55.9965 68.0604 55.7983 68.0604 55.6161C68.0604 50.3579 68.0604 45.0996 68.0604 39.8413C68.0329 39.6234 68.0834 39.4029 68.2036 39.2167C68.3237 39.0306 68.5061 38.89 68.7203 38.8184C73.3399 36.6608 77.9793 34.4775 82.6055 32.3007C82.684 32.2753 82.7646 32.256 82.8464 32.2432C82.8791 32.395 82.9011 32.5488 82.9123 32.7035C82.9123 38.0843 82.9123 43.464 82.9123 48.8427C82.9313 49.0022 82.8949 49.1632 82.8088 49.3004C82.7228 49.4376 82.592 49.5431 82.4372 49.6003C77.7472 51.7931 73.0627 53.9944 68.3838 56.2043C68.2777 56.2302 68.1695 56.2473 68.0604 56.2554Z" fill="#FFD700"/>
<path d="M32.0856 91.9957C31.7919 91.8742 31.6038 91.8071 31.4256 91.724C26.9117 89.6079 22.4021 87.4939 17.8969 85.3821C17.6959 85.3138 17.5243 85.1822 17.4095 85.0084C17.2947 84.8346 17.2432 84.6286 17.2633 84.4231C17.2864 79.168 17.2633 73.9098 17.2633 68.6547C17.2633 68.4373 17.2633 68.2168 17.2633 67.8779L20.2331 69.2684C23.9859 71.035 27.7432 72.7942 31.5048 74.5459C31.6902 74.6032 31.8499 74.7198 31.9579 74.8766C32.0658 75.0334 32.1155 75.2212 32.0988 75.4089C32.079 80.664 32.0988 85.9191 32.0988 91.1774C32.0856 91.4171 32.0856 91.6473 32.0856 91.9957Z" fill="#FF0055"/>
<path d="M17.2599 32.2075C18.9427 32.9907 20.5101 33.7131 22.0708 34.4451C25.2451 35.9368 28.4183 37.4285 31.5905 38.9202C31.747 38.971 31.8816 39.0708 31.9731 39.2039C32.0645 39.3371 32.1075 39.4959 32.0953 39.6554C32.0821 45.0554 32.0821 50.4554 32.0953 55.8554C32.0953 55.9737 32.0755 56.0951 32.059 56.2454C31.9478 56.2509 31.8364 56.239 31.729 56.2102C27.0259 54.0025 22.3282 51.7841 17.636 49.555C17.5236 49.4684 17.4324 49.3587 17.369 49.2337C17.3057 49.1088 17.2718 48.9718 17.2698 48.8326C17.2467 45.5722 17.2533 42.3117 17.2533 39.0513C17.2533 37.014 17.2533 34.9757 17.2533 32.9363C17.2599 32.7413 17.2599 32.54 17.2599 32.2075Z" fill="#FF0055"/>
<path d="M0.121247 43.2329C1.80079 44.0129 3.38795 44.7449 4.96521 45.4705C8.28911 47.0389 11.613 48.6095 14.9369 50.1822C15.1152 50.2321 15.2711 50.3387 15.3794 50.4848C15.4877 50.6309 15.5422 50.808 15.5341 50.9877C15.5144 55.5331 15.5341 60.0754 15.5341 64.6208C15.5341 64.7743 15.5012 64.9405 15.4715 65.1643L11.8847 63.4893C8.14502 61.7248 4.39106 59.9614 0.622802 58.199C0.444189 58.1488 0.288331 58.0416 0.180516 57.8948C0.072701 57.748 0.0192569 57.5702 0.0288557 57.3903C0.0618527 52.8481 0.0651524 48.3026 0.0783512 43.7603C0.0783512 43.6229 0.0981494 43.4695 0.121247 43.2329Z" fill="#FF0055"/>
<path d="M33.7933 59.0498C34.7832 59.5165 35.6445 59.9033 36.4892 60.2996C40.495 62.1792 44.491 64.0715 48.5067 65.9287C48.7374 66.0085 48.9329 66.1624 49.0608 66.3648C49.1886 66.5671 49.2411 66.8058 49.2095 67.0411C49.1765 71.4619 49.1765 75.8827 49.1666 80.3035C49.1666 80.4825 49.1468 80.6615 49.127 80.9428C48.5529 80.6871 48.0447 80.4697 47.5465 80.2364C43.2041 78.197 38.865 76.148 34.5127 74.1214C34.2796 74.0463 34.08 73.8963 33.9468 73.6964C33.8136 73.4965 33.7548 73.2585 33.7801 73.0218C33.8131 68.6426 33.7801 64.2601 33.7801 59.8777C33.7933 59.6603 33.7933 59.4526 33.7933 59.0498Z" fill="#FF0055"/>
<path d="M99.9437 43.2996C99.9602 43.485 99.9899 43.6416 99.9899 43.795C99.9899 48.2702 99.9899 52.7197 99.9899 57.1821C100.021 57.3883 99.9787 57.5987 99.8702 57.7787C99.7617 57.9587 99.5933 58.0977 99.3927 58.173C94.6444 60.3818 89.906 62.613 85.1644 64.8377C85.0192 64.9049 84.8608 64.9464 84.6463 65.0199C84.6265 64.7866 84.6001 64.614 84.6001 64.4382C84.6001 59.963 84.6001 55.4794 84.6001 50.9872C84.5765 50.8284 84.6081 50.6665 84.6899 50.527C84.7718 50.3875 84.8992 50.2784 85.0522 50.2168C89.9467 47.926 94.8391 45.6298 99.7293 43.3283C99.7995 43.3116 99.8714 43.302 99.9437 43.2996Z" fill="#FFD700"/>
<path d="M66.2637 59.0522C66.2835 59.3367 66.3066 59.5125 66.3066 59.6916C66.3066 64.1667 66.3066 68.6226 66.3066 73.085C66.3339 73.2623 66.2986 73.4435 66.2064 73.5989C66.1141 73.7544 65.9704 73.8752 65.7985 73.9417C60.9215 76.2154 56.0479 78.502 51.1775 80.8014C51.0936 80.8262 51.0074 80.8433 50.9201 80.8525C50.9201 80.6448 50.8772 80.4562 50.8772 80.2644C50.897 75.7189 50.9135 71.1735 50.963 66.628C50.9895 66.5006 51.045 66.3805 51.1255 66.2766C51.206 66.1726 51.3094 66.0873 51.4283 66.0271C55.5573 64.0665 59.694 62.1209 63.8384 60.1902L66.2637 59.0522Z" fill="#FFD700"/>
<path d="M32.0387 72.9316C31.1511 72.5225 30.3591 72.1613 29.5705 71.7905C25.6835 69.9652 21.7865 68.1272 17.8995 66.318C17.6865 66.2467 17.5049 66.107 17.3849 65.9222C17.2649 65.7374 17.2136 65.5184 17.2395 65.3015C17.2626 60.8807 17.2395 56.4599 17.2395 52.0391V51.272L20.6679 52.8702C24.291 54.575 27.9207 56.2799 31.5569 57.9847C31.8869 58.1413 32.0882 58.3043 32.0849 58.7007C32.0849 63.2845 32.0849 67.8683 32.0849 72.4457C32.0849 72.5736 32.0618 72.6919 32.0387 72.9316Z" fill="#FF0055"/>
<path d="M68.0905 72.8036C68.0905 72.5607 68.0608 72.3657 68.0608 72.1643C68.0608 67.7435 68.0608 63.3227 68.0608 58.9019C68.0325 58.6835 68.0827 58.4623 68.2028 58.2755C68.323 58.0886 68.5059 57.9475 68.7207 57.8758C73.3403 55.7214 77.9599 53.5382 82.5993 51.3645C82.6822 51.3425 82.7674 51.3296 82.8534 51.3262C82.8862 51.4747 82.9082 51.6253 82.9193 51.7769C82.9193 56.2808 82.9193 60.7815 82.9193 65.2854C82.9389 65.4739 82.8922 65.6632 82.7868 65.8228C82.6814 65.9823 82.5235 66.1027 82.3386 66.1644C77.6882 68.3338 73.0433 70.516 68.404 72.7109C68.3019 72.749 68.1971 72.7799 68.0905 72.8036V72.8036Z" fill="#FFD700"/>
<path d="M65.0893 7.0097C63.9707 7.54032 62.9412 8.03258 61.9117 8.51846C58.0973 10.3128 54.2806 12.1018 50.4618 13.8854C50.2488 13.9835 50.0045 13.9961 49.782 13.9206C44.9557 11.6702 40.1326 9.41561 35.3128 7.15674C35.2158 7.09141 35.1253 7.01758 35.0423 6.93618C35.6461 6.64529 36.1905 6.37679 36.7416 6.11787C41.029 4.10619 45.3186 2.09877 49.6104 0.0956201C49.8411 -0.0124303 50.1061 -0.0296176 50.3496 0.0476723C55.1891 2.30015 60.0287 4.56542 64.8682 6.84348C64.9457 6.89407 65.0195 6.9496 65.0893 7.0097V7.0097Z" fill="#1479FF"/>
<path d="M31.3559 22.8582L25.4461 25.6392C22.5919 26.9785 19.7344 28.3083 16.89 29.6636C16.7209 29.7551 16.5299 29.8015 16.3363 29.7981C16.1427 29.7947 15.9535 29.7417 15.7879 29.6444C11.1683 27.4644 6.56855 25.3163 1.95556 23.1555C1.76748 23.0692 1.586 22.9733 1.29562 22.8358C1.5266 22.692 1.65859 22.6057 1.82358 22.5322L12.8776 17.3186C13.8939 16.8392 14.9234 16.3885 15.9232 15.8802C16.4446 15.6149 16.8273 15.9601 17.1903 16.1263C21.7736 18.2488 26.3371 20.4097 30.9071 22.5641C31.0616 22.655 31.2114 22.7531 31.3559 22.8582Z" fill="#1479FF"/>
<path d="M98.8309 22.794C98.3459 23.0338 98.006 23.2096 97.6562 23.3726C93.1818 25.4759 88.7052 27.5718 84.2264 29.6601C83.9358 29.7761 83.6097 29.7761 83.319 29.6601C78.6049 27.4801 73.8984 25.282 69.1996 23.0657C69.0874 23.0146 68.9851 22.9506 68.7839 22.842C68.9983 22.7173 69.1402 22.6182 69.292 22.5447C73.9732 20.3412 78.6566 18.1441 83.3421 15.9535C83.638 15.8352 83.9702 15.8352 84.266 15.9535C86.2459 16.8645 88.1696 17.8266 90.1296 18.7504C91.7036 19.492 93.2973 20.1888 94.8779 20.9209C96.1417 21.5186 97.3923 22.1164 98.8309 22.794Z" fill="#1479FF"/>
<path d="M35.0423 38.6266L40.8629 35.8968C43.7931 34.5223 46.7199 33.1445 49.6566 31.786C49.8924 31.6924 50.1567 31.6924 50.3925 31.786C54.2971 33.5867 58.1951 35.3981 62.0866 37.2201C63.0501 37.6708 64.007 38.1279 65.1058 38.649C64.205 39.0837 63.4164 39.4705 62.6178 39.8445C58.5922 41.7336 54.5699 43.6259 50.531 45.4895C50.2141 45.6163 49.8581 45.6163 49.5411 45.4895C47.1917 44.4283 44.816 43.3063 42.4567 42.1907C40.0974 41.0751 37.7909 39.9915 35.4613 38.8887C35.317 38.8085 35.1771 38.721 35.0423 38.6266Z" fill="#1479FF"/>
<path d="M18.3447 14.7647L24.1324 12.0508C26.9272 10.737 29.7023 9.41687 32.5235 8.12547C32.8015 8.01482 33.1133 8.01482 33.3913 8.12547C38.1033 10.3076 42.8131 12.5068 47.5206 14.7231C47.6691 14.7934 47.8011 14.8861 48.042 15.0236L44.8677 16.5195C41.238 18.2201 37.6083 19.9142 33.9787 21.634C33.7997 21.7309 33.5975 21.7804 33.3924 21.7776C33.1874 21.7748 32.9867 21.7198 32.8106 21.618C28.1734 19.423 23.5296 17.2398 18.8792 15.0683C18.7341 15.0012 18.5988 14.9085 18.3447 14.7647Z" fill="#1479FF"/>
<path d="M81.777 14.8093C80.4208 15.4486 79.1834 16.0496 77.9428 16.6313C74.3725 18.3063 70.8055 19.9845 67.222 21.6339C67.0665 21.7001 66.8989 21.7358 66.7291 21.7391C66.5592 21.7424 66.3903 21.7132 66.2321 21.6531C61.7379 19.5625 57.247 17.4432 52.7529 15.3399C52.5681 15.2536 52.3866 15.1545 52.0929 15.0043L53.7032 14.2435C57.9686 12.2361 62.234 10.2266 66.4994 8.21488C66.6965 8.10792 66.9186 8.05176 67.1445 8.05176C67.3704 8.05176 67.5925 8.10792 67.7896 8.21488C72.2376 10.3278 76.6988 12.4119 81.1567 14.5024C81.3118 14.5632 81.4767 14.6559 81.777 14.8093Z" fill="#1479FF"/>
<path d="M18.3935 30.8043L22.2179 29.0142C25.8035 27.3307 29.3925 25.6493 32.9848 23.9701C33.215 23.861 33.48 23.8427 33.7239 23.9189C38.3787 26.0841 43.0269 28.2609 47.6685 30.4494C47.7821 30.5165 47.8923 30.5891 47.9984 30.6668C47.3979 30.9545 46.8831 31.2038 46.3684 31.4436C42.081 33.4595 37.7914 35.4701 33.4995 37.4754C33.214 37.6087 32.8858 37.6282 32.5855 37.5297C27.9461 35.3795 23.3156 33.2112 18.6938 31.0248C18.5889 30.9576 18.4886 30.8839 18.3935 30.8043Z" fill="#1479FF"/>
<path d="M81.6876 30.8527C80.9748 31.1979 80.3512 31.492 79.7077 31.8117C75.6931 33.6955 71.673 35.5825 67.6473 37.4727C67.4899 37.5648 67.3105 37.6159 67.1266 37.6209C66.9427 37.626 66.7606 37.5848 66.598 37.5015C61.9059 35.2767 57.2071 33.0626 52.5017 30.8591C52.3994 30.8112 52.307 30.7408 52.1091 30.6194C53.0693 30.1591 53.9404 29.7339 54.8148 29.3248C58.6315 27.5347 62.4503 25.75 66.2714 23.9706C66.5222 23.8599 66.808 23.8496 67.0666 23.9418C71.816 26.1496 76.5587 28.3722 81.2949 30.6098C81.4005 30.6577 81.5061 30.7281 81.6876 30.8527Z" fill="#1479FF"/>
<path d="M35.4212 22.82C36.741 22.1807 37.9553 21.6117 39.1597 21.0459C42.6376 19.4125 46.1122 17.7759 49.6 16.168C49.8959 16.0501 50.2279 16.0501 50.5239 16.168C55.0863 18.2863 59.6399 20.4173 64.1846 22.5611C64.3133 22.6218 64.4321 22.7017 64.6565 22.8296C64.2671 23.0278 63.9504 23.2004 63.627 23.3506C59.3022 25.3836 54.9785 27.4155 50.6559 29.4464C50.5004 29.5444 50.3213 29.6015 50.1362 29.6121C49.9511 29.6228 49.7663 29.5866 49.6 29.5071C45.02 27.3335 40.4334 25.1737 35.8402 23.0278L35.4212 22.82Z" fill="#1479FF"/>
</svg>
